<svg xmlns="http://www.w3.org/2000/svg" viewBox="-15 -15 30 30" fill="black" stroke="none">
  <polygon points="-10.15,7.92 -9.51,8.10 -8.93,8.43 -8.46,8.90 -8.27,9.17 -8.00,9.78 -7.93,10.10 -7.91,10.77 -7.96,11.09 -8.18,11.72 -8.35,12.01 -8.79,12.50 -9.34,12.87 -9.64,13.01 -10.29,13.15 -10.96,13.12 -11.28,13.05 -11.89,12.78 -12.41,12.37 -12.62,12.11 -12.96,11.54 -13.06,11.22 -13.16,10.57 -13.14,10.24 -12.99,9.59 -12.85,9.29 -12.46,8.75 -11.96,8.32 -11.67,8.16 -11.04,7.94 -10.48,7.90" />
  <polygon points="-4.88,7.92 -4.25,8.10 -3.67,8.43 -3.20,8.90 -3.01,9.17 -2.74,9.78 -2.67,10.10 -2.64,10.77 -2.69,11.09 -2.92,11.72 -3.09,12.01 -3.53,12.50 -4.08,12.87 -4.38,13.01 -5.03,13.15 -5.69,13.12 -6.02,13.05 -6.62,12.78 -7.14,12.37 -7.36,12.11 -7.69,11.54 -7.80,11.22 -7.89,10.57 -7.88,10.24 -7.72,9.59 -7.59,9.29 -7.20,8.75 -6.69,8.32 -6.40,8.16 -5.77,7.94 -5.22,7.90" />
  <polygon points="5.64,7.92 6.28,8.10 6.86,8.43 7.33,8.90 7.52,9.17 7.79,9.78 7.86,10.10 7.88,10.77 7.83,11.09 7.61,11.72 7.44,12.01 7.00,12.50 6.45,12.87 6.15,13.01 5.50,13.15 4.83,13.12 4.51,13.05 3.90,12.78 3.38,12.37 3.17,12.11 2.83,11.54 2.73,11.22 2.63,10.57 2.65,10.24 2.80,9.59 2.94,9.29 3.33,8.75 3.83,8.32 4.12,8.16 4.75,7.94 5.31,7.90" />
  <polygon points="-10.15,2.66 -9.51,2.84 -8.93,3.17 -8.46,3.63 -8.27,3.91 -8.00,4.51 -7.93,4.84 -7.91,5.50 -7.96,5.83 -8.18,6.46 -8.35,6.74 -8.79,7.24 -9.34,7.61 -9.64,7.74 -10.29,7.88 -10.96,7.86 -11.28,7.78 -11.89,7.52 -12.41,7.10 -12.62,6.85 -12.96,6.28 -13.06,5.96 -13.16,5.30 -13.14,4.97 -12.99,4.33 -12.85,4.02 -12.46,3.48 -11.96,3.05 -11.67,2.89 -11.04,2.68 -10.48,2.63" />
  <polygon points="5.64,2.66 6.28,2.84 6.86,3.17 7.33,3.63 7.52,3.91 7.79,4.51 7.86,4.84 7.88,5.50 7.83,5.83 7.61,6.46 7.44,6.74 7.00,7.24 6.45,7.61 6.15,7.74 5.50,7.88 4.83,7.86 4.51,7.78 3.90,7.52 3.38,7.10 3.17,6.85 2.83,6.28 2.73,5.96 2.63,5.30 2.65,4.97 2.80,4.33 2.94,4.02 3.33,3.48 3.83,3.05 4.12,2.89 4.75,2.68 5.31,2.63" />
  <polygon points="0.38,-2.60 1.02,-2.43 1.59,-2.09 2.07,-1.63 2.26,-1.36 2.52,-0.75 2.60,-0.42 2.62,0.24 2.57,0.57 2.35,1.19 2.18,1.48 1.74,1.98 1.19,2.35 0.88,2.48 0.23,2.62 -0.43,2.60 -0.75,2.52 -1.36,2.25 -1.88,1.84 -2.10,1.59 -2.43,1.01 -2.54,0.70 -2.63,0.04 -2.62,-0.29 -2.46,-0.94 -2.32,-1.24 -1.94,-1.78 -1.43,-2.21 -1.14,-2.37 -0.51,-2.58 0.05,-2.63" />
  <polygon points="10.90,-2.60 11.54,-2.43 12.12,-2.09 12.59,-1.63 12.78,-1.36 13.05,-0.75 13.12,-0.42 13.15,0.24 13.10,0.57 12.87,1.19 12.70,1.48 12.26,1.98 11.71,2.35 11.41,2.48 10.76,2.62 10.10,2.60 9.77,2.52 9.17,2.25 8.65,1.84 8.43,1.59 8.10,1.01 7.99,0.70 7.90,0.04 7.91,-0.29 8.07,-0.94 8.20,-1.24 8.59,-1.78 9.10,-2.21 9.39,-2.37 10.01,-2.58 10.57,-2.63" />
  <polygon points="-4.88,-7.87 -4.25,-7.69 -3.67,-7.36 -3.20,-6.89 -3.01,-6.62 -2.74,-6.01 -2.67,-5.69 -2.64,-5.02 -2.69,-4.70 -2.92,-4.07 -3.09,-3.78 -3.53,-3.29 -4.08,-2.91 -4.38,-2.78 -5.03,-2.64 -5.69,-2.67 -6.02,-2.74 -6.62,-3.01 -7.14,-3.42 -7.36,-3.67 -7.69,-4.25 -7.80,-4.56 -7.89,-5.22 -7.88,-5.55 -7.72,-6.20 -7.59,-6.50 -7.20,-7.04 -6.69,-7.47 -6.40,-7.63 -5.77,-7.84 -5.22,-7.89" />
  <polygon points="0.38,-7.87 1.02,-7.69 1.59,-7.36 2.07,-6.89 2.26,-6.62 2.52,-6.01 2.60,-5.69 2.62,-5.02 2.57,-4.70 2.35,-4.07 2.18,-3.78 1.74,-3.29 1.19,-2.91 0.88,-2.78 0.23,-2.64 -0.43,-2.67 -0.75,-2.74 -1.36,-3.01 -1.88,-3.42 -2.10,-3.67 -2.43,-4.25 -2.54,-4.56 -2.63,-5.22 -2.62,-5.55 -2.46,-6.20 -2.32,-6.50 -1.94,-7.04 -1.43,-7.47 -1.14,-7.63 -0.51,-7.84 0.05,-7.89" />
  <polygon points="-10.15,-13.13 -9.51,-12.95 -8.93,-12.62 -8.46,-12.16 -8.27,-11.88 -8.00,-11.27 -7.93,-10.95 -7.91,-10.29 -7.96,-9.96 -8.18,-9.33 -8.35,-9.05 -8.79,-8.55 -9.34,-8.18 -9.64,-8.05 -10.29,-7.91 -10.96,-7.93 -11.28,-8.00 -11.89,-8.27 -12.41,-8.69 -12.62,-8.94 -12.96,-9.51 -13.06,-9.83 -13.16,-10.48 -13.14,-10.82 -12.99,-11.46 -12.85,-11.76 -12.46,-12.31 -11.96,-12.73 -11.67,-12.90 -11.04,-13.11 -10.48,-13.16" />
  <polygon points="-4.88,-13.13 -4.25,-12.95 -3.67,-12.62 -3.20,-12.16 -3.01,-11.88 -2.74,-11.27 -2.67,-10.95 -2.64,-10.29 -2.69,-9.96 -2.92,-9.33 -3.09,-9.05 -3.53,-8.55 -4.08,-8.18 -4.38,-8.05 -5.03,-7.91 -5.69,-7.93 -6.02,-8.00 -6.62,-8.27 -7.14,-8.69 -7.36,-8.94 -7.69,-9.51 -7.80,-9.83 -7.89,-10.48 -7.88,-10.82 -7.72,-11.46 -7.59,-11.76 -7.20,-12.31 -6.69,-12.73 -6.40,-12.90 -5.77,-13.11 -5.22,-13.16" />
  <polygon points="0.38,-13.13 1.02,-12.95 1.59,-12.62 2.07,-12.16 2.26,-11.88 2.52,-11.27 2.60,-10.95 2.62,-10.29 2.57,-9.96 2.35,-9.33 2.18,-9.05 1.74,-8.55 1.19,-8.18 0.88,-8.05 0.23,-7.91 -0.43,-7.93 -0.75,-8.00 -1.36,-8.27 -1.88,-8.69 -2.10,-8.94 -2.43,-9.51 -2.54,-9.83 -2.63,-10.48 -2.62,-10.82 -2.46,-11.46 -2.32,-11.76 -1.94,-12.31 -1.43,-12.73 -1.14,-12.90 -0.51,-13.11 0.05,-13.16" />
  <polygon points="10.90,-13.13 11.54,-12.95 12.12,-12.62 12.59,-12.16 12.78,-11.88 13.05,-11.27 13.12,-10.95 13.15,-10.29 13.10,-9.96 12.87,-9.33 12.70,-9.05 12.26,-8.55 11.71,-8.18 11.41,-8.05 10.76,-7.91 10.10,-7.93 9.77,-8.00 9.17,-8.27 8.65,-8.69 8.43,-8.94 8.10,-9.51 7.99,-9.83 7.90,-10.48 7.91,-10.82 8.07,-11.46 8.20,-11.76 8.59,-12.31 9.10,-12.73 9.39,-12.90 10.01,-13.11 10.57,-13.16" />
</svg>