<svg xmlns="http://www.w3.org/2000/svg" viewBox="-15 -15 30 30" fill="black" stroke="none">
  <polygon points="-9.93,8.23 -9.37,8.46 -8.89,8.81 -8.52,9.27 -8.27,9.82 -8.16,10.40 -8.21,11.00 -8.28,11.29 -8.55,11.83 -8.93,12.28 -9.42,12.62 -9.98,12.83 -10.58,12.89 -11.17,12.81 -11.72,12.57 -12.19,12.21 -12.39,11.99 -12.70,11.47 -12.80,11.19 -12.89,10.60 -12.88,10.30 -12.75,9.72 -12.48,9.19 -12.08,8.74 -11.59,8.41 -11.02,8.21 -10.52,8.16" />
  <polygon points="-4.67,8.23 -4.11,8.46 -3.63,8.81 -3.25,9.27 -3.00,9.82 -2.90,10.40 -2.94,11.00 -3.02,11.29 -3.28,11.83 -3.67,12.28 -4.16,12.62 -4.72,12.83 -5.31,12.89 -5.91,12.81 -6.46,12.57 -6.93,12.21 -7.13,11.99 -7.43,11.47 -7.54,11.19 -7.63,10.60 -7.62,10.30 -7.49,9.72 -7.22,9.19 -6.82,8.74 -6.32,8.41 -5.76,8.21 -5.26,8.16" />
  <polygon points="5.86,8.23 6.41,8.46 6.90,8.81 7.27,9.27 7.52,9.82 7.63,10.40 7.58,11.00 7.51,11.29 7.24,11.83 6.85,12.28 6.37,12.62 5.81,12.83 5.21,12.89 4.62,12.81 4.07,12.57 3.60,12.21 3.40,11.99 3.09,11.47 2.99,11.19 2.90,10.60 2.91,10.30 3.04,9.72 3.31,9.19 3.71,8.74 4.20,8.41 4.77,8.21 5.27,8.16" />
  <polygon points="-9.93,2.97 -9.37,3.19 -8.89,3.55 -8.52,4.01 -8.27,4.55 -8.16,5.14 -8.21,5.74 -8.28,6.03 -8.55,6.56 -8.93,7.02 -9.42,7.36 -9.98,7.57 -10.58,7.63 -11.17,7.54 -11.72,7.31 -12.19,6.95 -12.39,6.72 -12.70,6.21 -12.80,5.93 -12.89,5.34 -12.88,5.04 -12.75,4.46 -12.48,3.92 -12.08,3.48 -11.59,3.15 -11.02,2.95 -10.52,2.89" />
  <polygon points="5.86,2.97 6.41,3.19 6.90,3.55 7.27,4.01 7.52,4.55 7.63,5.14 7.58,5.74 7.51,6.03 7.24,6.56 6.85,7.02 6.37,7.36 5.81,7.57 5.21,7.63 4.62,7.54 4.07,7.31 3.60,6.95 3.40,6.72 3.09,6.21 2.99,5.93 2.90,5.34 2.91,5.04 3.04,4.46 3.31,3.92 3.71,3.48 4.20,3.15 4.77,2.95 5.27,2.89" />
  <polygon points="0.60,-2.29 1.15,-2.07 1.63,-1.72 2.01,-1.25 2.26,-0.71 2.37,-0.12 2.32,0.47 2.24,0.76 1.98,1.30 1.59,1.75 1.10,2.10 0.54,2.31 -0.05,2.37 -0.64,2.28 -1.19,2.05 -1.67,1.68 -1.87,1.46 -2.17,0.95 -2.27,0.66 -2.37,0.07 -2.36,-0.22 -2.23,-0.81 -1.95,-1.34 -1.56,-1.78 -1.06,-2.12 -0.50,-2.32 0.00,-2.37" />
  <polygon points="11.12,-2.29 11.68,-2.07 12.16,-1.72 12.54,-1.25 12.79,-0.71 12.89,-0.12 12.85,0.47 12.77,0.76 12.51,1.30 12.12,1.75 11.63,2.10 11.07,2.31 10.47,2.37 9.88,2.28 9.33,2.05 8.86,1.68 8.66,1.46 8.36,0.95 8.25,0.66 8.16,0.07 8.17,-0.22 8.30,-0.81 8.57,-1.34 8.97,-1.78 9.47,-2.12 10.03,-2.32 10.53,-2.37" />
  <polygon points="-4.67,-7.56 -4.11,-7.33 -3.63,-6.98 -3.25,-6.52 -3.00,-5.97 -2.90,-5.38 -2.94,-4.79 -3.02,-4.50 -3.28,-3.96 -3.67,-3.51 -4.16,-3.17 -4.72,-2.96 -5.31,-2.90 -5.91,-2.98 -6.46,-3.22 -6.93,-3.58 -7.13,-3.80 -7.43,-4.32 -7.54,-4.60 -7.63,-5.19 -7.62,-5.49 -7.49,-6.07 -7.22,-6.60 -6.82,-7.05 -6.32,-7.38 -5.76,-7.58 -5.26,-7.63" />
  <polygon points="0.60,-7.56 1.15,-7.33 1.63,-6.98 2.01,-6.52 2.26,-5.97 2.37,-5.38 2.32,-4.79 2.24,-4.50 1.98,-3.96 1.59,-3.51 1.10,-3.17 0.54,-2.96 -0.05,-2.90 -0.64,-2.98 -1.19,-3.22 -1.67,-3.58 -1.87,-3.80 -2.17,-4.32 -2.27,-4.60 -2.37,-5.19 -2.36,-5.49 -2.23,-6.07 -1.95,-6.60 -1.56,-7.05 -1.06,-7.38 -0.50,-7.58 0.00,-7.63" />
  <polygon points="-9.93,-12.82 -9.37,-12.60 -8.89,-12.24 -8.52,-11.78 -8.27,-11.24 -8.16,-10.65 -8.21,-10.05 -8.28,-9.76 -8.55,-9.23 -8.93,-8.77 -9.42,-8.43 -9.98,-8.22 -10.58,-8.16 -11.17,-8.25 -11.72,-8.48 -12.19,-8.84 -12.39,-9.07 -12.70,-9.58 -12.80,-9.86 -12.89,-10.45 -12.88,-10.75 -12.75,-11.33 -12.48,-11.86 -12.08,-12.31 -11.59,-12.64 -11.02,-12.84 -10.52,-12.89" />
  <polygon points="-4.67,-12.82 -4.11,-12.60 -3.63,-12.24 -3.25,-11.78 -3.00,-11.24 -2.90,-10.65 -2.94,-10.05 -3.02,-9.76 -3.28,-9.23 -3.67,-8.77 -4.16,-8.43 -4.72,-8.22 -5.31,-8.16 -5.91,-8.25 -6.46,-8.48 -6.93,-8.84 -7.13,-9.07 -7.43,-9.58 -7.54,-9.86 -7.63,-10.45 -7.62,-10.75 -7.49,-11.33 -7.22,-11.86 -6.82,-12.31 -6.32,-12.64 -5.76,-12.84 -5.26,-12.89" />
  <polygon points="0.60,-12.82 1.15,-12.60 1.63,-12.24 2.01,-11.78 2.26,-11.24 2.37,-10.65 2.32,-10.05 2.24,-9.76 1.98,-9.23 1.59,-8.77 1.10,-8.43 0.54,-8.22 -0.05,-8.16 -0.64,-8.25 -1.19,-8.48 -1.67,-8.84 -1.87,-9.07 -2.17,-9.58 -2.27,-9.86 -2.37,-10.45 -2.36,-10.75 -2.23,-11.33 -1.95,-11.86 -1.56,-12.31 -1.06,-12.64 -0.50,-12.84 0.00,-12.89" />
  <polygon points="11.12,-12.82 11.68,-12.60 12.16,-12.24 12.54,-11.78 12.79,-11.24 12.89,-10.65 12.85,-10.05 12.77,-9.76 12.51,-9.23 12.12,-8.77 11.63,-8.43 11.07,-8.22 10.47,-8.16 9.88,-8.25 9.33,-8.48 8.86,-8.84 8.66,-9.07 8.36,-9.58 8.25,-9.86 8.16,-10.45 8.17,-10.75 8.30,-11.33 8.57,-11.86 8.97,-12.31 9.47,-12.64 10.03,-12.84 10.53,-12.89" />
</svg>