<svg xmlns="http://www.w3.org/2000/svg" viewBox="-15 -15 30 30" fill="black" stroke="none">
  <polygon points="-7.89,10.53 -10.53,13.16 -13.16,10.53 -10.53,7.89" />
  <polygon points="-2.63,10.53 -5.26,13.16 -7.89,10.53 -5.26,7.89" />
  <polygon points="7.89,10.53 5.26,13.16 2.63,10.53 5.26,7.89" />
  <polygon points="-7.89,5.26 -10.53,7.89 -13.16,5.26 -10.53,2.63" />
  <polygon points="7.89,5.26 5.26,7.89 2.63,5.26 5.26,2.63" />
  <polygon points="2.63,-0.00 -0.00,2.63 -2.63,-0.00 -0.00,-2.63" />
  <polygon points="13.16,-0.00 10.53,2.63 7.89,-0.00 10.53,-2.63" />
  <polygon points="-2.63,-5.26 -5.26,-2.63 -7.89,-5.26 -5.26,-7.89" />
  <polygon points="2.63,-5.26 -0.00,-2.63 -2.63,-5.26 -0.00,-7.89" />
  <polygon points="-7.89,-10.53 -10.53,-7.89 -13.16,-10.53 -10.53,-13.16" />
  <polygon points="-2.63,-10.53 -5.26,-7.89 -7.89,-10.53 -5.26,-13.16" />
  <polygon points="2.63,-10.53 -0.00,-7.89 -2.63,-10.53 -0.00,-13.16" />
  <polygon points="13.16,-10.53 10.53,-7.89 7.89,-10.53 10.53,-13.16" />
</svg>