<svg xmlns="http://www.w3.org/2000/svg" viewBox="-15 -15 30 30" fill="black" stroke="none">
  <polygon points="-4.99,8.44 -4.73,8.49 -4.24,8.69 -3.81,9.00 -3.48,9.41 -3.25,9.90 -3.16,10.42 -3.20,10.95 -3.27,11.20 -3.50,11.68 -3.85,12.09 -4.06,12.25 -4.53,12.50 -4.78,12.58 -5.31,12.63 -5.83,12.55 -6.32,12.35 -6.54,12.20 -6.92,11.82 -7.04,11.62 -8.74,11.62 -8.77,11.68 -9.11,12.09 -9.32,12.25 -9.79,12.50 -10.04,12.58 -10.57,12.63 -11.10,12.55 -11.59,12.35 -11.81,12.20 -12.18,11.82 -12.46,11.37 -12.55,11.12 -12.63,10.59 -12.58,10.06 -12.40,9.56 -12.26,9.34 -11.91,8.94 -11.47,8.64 -11.22,8.54 -10.70,8.43 -10.26,8.44 -10.00,8.49 -9.50,8.69 -9.07,9.00 -8.73,9.43 -7.06,9.43 -7.00,9.34 -6.65,8.94 -6.21,8.64 -5.96,8.54 -5.44,8.43" />
  <polygon points="5.53,8.44 5.79,8.49 6.29,8.69 6.71,9.00 7.05,9.41 7.27,9.90 7.37,10.42 7.33,10.95 7.26,11.20 7.02,11.68 6.68,12.09 6.47,12.25 6.00,12.50 5.75,12.58 5.22,12.63 4.69,12.55 4.20,12.35 3.98,12.20 3.61,11.82 3.33,11.37 3.24,11.12 3.16,10.59 3.21,10.06 3.39,9.56 3.53,9.34 3.88,8.94 4.32,8.64 4.57,8.54 5.08,8.43" />
  <polygon points="-10.26,3.18 -10.00,3.23 -9.50,3.42 -9.07,3.74 -8.74,4.15 -8.52,4.63 -8.42,5.16 -8.46,5.68 -8.53,5.94 -8.77,6.42 -9.11,6.82 -9.32,6.99 -9.79,7.24 -10.04,7.31 -10.57,7.37 -11.10,7.29 -11.59,7.08 -11.81,6.93 -12.18,6.56 -12.46,6.10 -12.55,5.85 -12.63,5.33 -12.58,4.80 -12.40,4.30 -12.26,4.07 -11.91,3.68 -11.47,3.38 -11.22,3.28 -10.70,3.17" />
  <polygon points="5.53,3.18 5.79,3.23 6.29,3.42 6.71,3.74 7.05,4.15 7.27,4.63 7.37,5.16 7.33,5.68 7.26,5.94 7.02,6.42 6.68,6.82 6.47,6.99 6.00,7.24 5.75,7.31 5.22,7.37 4.69,7.29 4.20,7.08 3.98,6.93 3.61,6.56 3.33,6.10 3.24,5.85 3.16,5.33 3.21,4.80 3.39,4.30 3.53,4.07 3.88,3.68 4.32,3.38 4.57,3.28 5.08,3.17" />
  <polygon points="0.27,-2.09 0.53,-2.04 1.02,-1.84 1.45,-1.52 1.79,-1.11 2.01,-0.63 2.10,-0.11 2.06,0.42 1.99,0.68 1.76,1.16 1.41,1.56 1.21,1.72 0.74,1.97 0.48,2.05 -0.05,2.10 -0.57,2.03 -1.06,1.82 -1.28,1.67 -1.66,1.30 -1.93,0.84 -2.02,0.59 -2.10,0.07 -2.05,-0.46 -1.87,-0.96 -1.74,-1.19 -1.38,-1.59 -0.94,-1.88 -0.70,-1.99 -0.18,-2.10" />
  <polygon points="10.80,-2.09 11.06,-2.04 11.55,-1.84 11.98,-1.52 12.31,-1.11 12.53,-0.63 12.63,-0.11 12.59,0.42 12.52,0.68 12.29,1.16 11.94,1.56 11.73,1.72 11.26,1.97 11.01,2.05 10.48,2.10 9.96,2.03 9.47,1.82 9.25,1.67 8.87,1.30 8.60,0.84 8.51,0.59 8.42,0.07 8.47,-0.46 8.65,-0.96 8.79,-1.19 9.14,-1.59 9.58,-1.88 9.83,-1.99 10.35,-2.10" />
  <polygon points="0.27,-7.35 0.53,-7.30 1.02,-7.10 1.45,-6.79 1.79,-6.38 2.01,-5.89 2.10,-5.37 2.06,-4.84 1.99,-4.58 1.76,-4.11 1.41,-3.70 1.21,-3.54 0.74,-3.29 0.48,-3.21 -0.05,-3.16 -0.57,-3.24 -1.06,-3.44 -1.28,-3.59 -1.66,-3.97 -1.78,-4.17 -3.47,-4.17 -3.50,-4.11 -3.85,-3.70 -4.06,-3.54 -4.53,-3.29 -4.78,-3.21 -5.31,-3.16 -5.83,-3.24 -6.32,-3.44 -6.54,-3.59 -6.92,-3.97 -7.19,-4.42 -7.28,-4.67 -7.37,-5.20 -7.32,-5.73 -7.14,-6.22 -7.00,-6.45 -6.65,-6.85 -6.21,-7.15 -5.96,-7.25 -5.44,-7.36 -4.99,-7.35 -4.73,-7.30 -4.24,-7.10 -3.81,-6.79 -3.47,-6.36 -1.79,-6.36 -1.74,-6.45 -1.38,-6.85 -0.94,-7.15 -0.70,-7.25 -0.18,-7.36" />
  <polygon points="0.27,-12.61 0.53,-12.56 1.02,-12.37 1.45,-12.05 1.79,-11.64 2.01,-11.16 2.10,-10.63 2.06,-10.10 1.99,-9.85 1.76,-9.37 1.41,-8.97 1.21,-8.80 0.74,-8.55 0.48,-8.48 -0.05,-8.42 -0.57,-8.50 -1.06,-8.71 -1.28,-8.86 -1.66,-9.23 -1.78,-9.43 -3.47,-9.43 -3.50,-9.37 -3.85,-8.97 -4.06,-8.80 -4.53,-8.55 -4.78,-8.48 -5.31,-8.42 -5.83,-8.50 -6.32,-8.71 -6.54,-8.86 -6.92,-9.23 -7.04,-9.43 -8.74,-9.43 -8.77,-9.37 -9.11,-8.97 -9.32,-8.80 -9.79,-8.55 -10.04,-8.48 -10.57,-8.42 -11.10,-8.50 -11.59,-8.71 -11.81,-8.86 -12.18,-9.23 -12.46,-9.69 -12.55,-9.94 -12.63,-10.46 -12.58,-10.99 -12.40,-11.49 -12.26,-11.72 -11.91,-12.11 -11.47,-12.41 -11.22,-12.51 -10.70,-12.62 -10.26,-12.61 -10.00,-12.56 -9.50,-12.37 -9.07,-12.05 -8.73,-11.62 -7.06,-11.62 -7.00,-11.72 -6.65,-12.11 -6.21,-12.41 -5.96,-12.51 -5.44,-12.62 -4.99,-12.61 -4.73,-12.56 -4.24,-12.37 -3.81,-12.05 -3.47,-11.62 -1.79,-11.62 -1.74,-11.72 -1.38,-12.11 -0.94,-12.41 -0.70,-12.51 -0.18,-12.62" />
  <polygon points="10.80,-12.61 11.06,-12.56 11.55,-12.37 11.98,-12.05 12.31,-11.64 12.53,-11.16 12.63,-10.63 12.59,-10.10 12.52,-9.85 12.29,-9.37 11.94,-8.97 11.73,-8.80 11.26,-8.55 11.01,-8.48 10.48,-8.42 9.96,-8.50 9.47,-8.71 9.25,-8.86 8.87,-9.23 8.60,-9.69 8.51,-9.94 8.42,-10.46 8.47,-10.99 8.65,-11.49 8.79,-11.72 9.14,-12.11 9.58,-12.41 9.83,-12.51 10.35,-12.62" />
</svg>