<svg xmlns="http://www.w3.org/2000/svg" viewBox="-15 -15 30 30" fill="black" stroke="none">
  <polygon points="-9.93,2.97 -9.37,3.19 -8.89,3.55 -8.52,4.01 -8.27,4.55 -8.16,5.14 -8.17,5.26 -8.16,5.26 -8.16,8.16 -5.26,8.16 -4.67,8.23 -4.11,8.46 -3.63,8.81 -3.25,9.27 -3.00,9.82 -2.90,10.40 -2.94,11.00 -3.02,11.29 -3.28,11.83 -3.67,12.28 -4.16,12.62 -4.72,12.83 -5.26,12.89 -10.53,12.89 -11.17,12.81 -11.72,12.57 -12.19,12.21 -12.39,11.99 -12.70,11.47 -12.80,11.19 -12.89,10.60 -12.89,5.26 -12.88,5.04 -12.75,4.46 -12.48,3.92 -12.08,3.48 -11.59,3.15 -11.02,2.95 -10.52,2.89" />
  <polygon points="5.86,2.97 6.41,3.19 6.90,3.55 7.27,4.01 7.52,4.55 7.63,5.14 7.62,5.26 7.63,5.26 7.63,10.53 7.62,10.53 7.58,11.00 7.51,11.29 7.24,11.83 6.85,12.28 6.37,12.62 5.81,12.83 5.21,12.89 4.62,12.81 4.07,12.57 3.60,12.21 3.40,11.99 3.09,11.47 2.99,11.19 2.90,10.60 2.89,5.26 2.91,5.04 3.04,4.46 3.31,3.92 3.71,3.48 4.20,3.15 4.77,2.95 5.27,2.89" />
  <polygon points="0.60,-12.82 1.15,-12.60 1.63,-12.24 2.01,-11.78 2.26,-11.24 2.37,-10.65 2.36,-10.53 2.37,-10.53 2.37,-0.00 2.36,-0.00 2.32,0.47 2.24,0.76 1.98,1.30 1.59,1.75 1.10,2.10 0.54,2.31 -0.05,2.37 -0.64,2.28 -1.19,2.05 -1.67,1.68 -1.87,1.46 -2.17,0.95 -2.27,0.66 -2.37,0.07 -2.37,-2.89 -5.26,-2.89 -5.91,-2.98 -6.46,-3.22 -6.93,-3.58 -7.13,-3.80 -7.43,-4.32 -7.54,-4.60 -7.63,-5.19 -7.63,-8.16 -10.53,-8.16 -11.17,-8.25 -11.72,-8.48 -12.19,-8.84 -12.39,-9.07 -12.70,-9.58 -12.80,-9.86 -12.89,-10.45 -12.88,-10.75 -12.75,-11.33 -12.48,-11.86 -12.08,-12.31 -11.59,-12.64 -11.02,-12.84 -10.53,-12.89 -0.00,-12.89" />
  <polygon points="11.12,-2.29 11.68,-2.07 12.16,-1.72 12.54,-1.25 12.79,-0.71 12.89,-0.12 12.85,0.47 12.77,0.76 12.51,1.30 12.12,1.75 11.63,2.10 11.07,2.31 10.47,2.37 9.88,2.28 9.33,2.05 8.86,1.68 8.66,1.46 8.36,0.95 8.25,0.66 8.16,0.07 8.17,-0.22 8.30,-0.81 8.57,-1.34 8.97,-1.78 9.47,-2.12 10.03,-2.32 10.53,-2.37" />
  <polygon points="11.12,-12.82 11.68,-12.60 12.16,-12.24 12.54,-11.78 12.79,-11.24 12.89,-10.65 12.85,-10.05 12.77,-9.76 12.51,-9.23 12.12,-8.77 11.63,-8.43 11.07,-8.22 10.47,-8.16 9.88,-8.25 9.33,-8.48 8.86,-8.84 8.66,-9.07 8.36,-9.58 8.25,-9.86 8.16,-10.45 8.17,-10.75 8.30,-11.33 8.57,-11.86 8.97,-12.31 9.47,-12.64 10.03,-12.84 10.53,-12.89" />
</svg>