<svg xmlns="http://www.w3.org/2000/svg" viewBox="-15 -15 30 30" fill="black" stroke="none">
  <polygon points="-11.47,8.12 -11.28,8.18 -10.94,8.37 -10.67,8.64 -10.52,8.89 -10.34,8.60 -10.06,8.34 -9.72,8.16 -9.53,8.11 -9.06,8.11 -8.80,8.17 -8.56,8.29 -8.17,8.65 -7.94,9.13 -7.90,9.40 -7.95,9.94 -8.02,10.18 -8.25,10.61 -8.81,11.23 -10.10,12.44 -10.52,12.96 -10.92,12.44 -11.36,11.99 -12.32,11.12 -12.67,10.74 -12.95,10.33 -13.12,9.87 -13.15,9.33 -13.10,9.06 -12.99,8.82 -12.65,8.41 -12.19,8.15 -11.92,8.10" />
  <polygon points="-6.21,8.12 -6.02,8.18 -5.68,8.37 -5.41,8.64 -5.26,8.89 -5.08,8.60 -4.80,8.34 -4.46,8.16 -4.27,8.11 -3.80,8.11 -3.54,8.17 -3.29,8.29 -2.90,8.65 -2.67,9.13 -2.63,9.40 -2.69,9.94 -2.76,10.18 -2.99,10.61 -3.55,11.23 -4.84,12.44 -5.26,12.96 -5.66,12.44 -6.10,11.99 -7.05,11.12 -7.41,10.74 -7.69,10.33 -7.85,9.87 -7.89,9.33 -7.83,9.06 -7.73,8.82 -7.39,8.41 -6.92,8.15 -6.65,8.10" />
  <polygon points="4.32,8.12 4.51,8.18 4.85,8.37 5.12,8.64 5.27,8.89 5.45,8.60 5.73,8.34 6.07,8.16 6.26,8.11 6.73,8.11 6.99,8.17 7.23,8.29 7.62,8.65 7.85,9.13 7.89,9.40 7.84,9.94 7.77,10.18 7.53,10.61 6.98,11.23 5.69,12.44 5.27,12.96 4.86,12.44 4.43,11.99 3.47,11.12 3.12,10.74 2.84,10.33 2.67,9.87 2.64,9.33 2.69,9.06 2.80,8.82 3.14,8.41 3.60,8.15 3.87,8.10" />
  <polygon points="-11.47,2.86 -11.28,2.92 -10.94,3.10 -10.67,3.37 -10.52,3.62 -10.34,3.34 -10.06,3.07 -9.72,2.90 -9.53,2.85 -9.06,2.84 -8.80,2.91 -8.56,3.03 -8.17,3.38 -7.94,3.87 -7.90,4.14 -7.95,4.68 -8.02,4.92 -8.25,5.35 -8.81,5.96 -10.10,7.17 -10.52,7.70 -10.92,7.17 -11.36,6.72 -12.32,5.85 -12.67,5.47 -12.95,5.07 -13.12,4.61 -13.15,4.07 -13.10,3.80 -12.99,3.55 -12.65,3.14 -12.19,2.89 -11.92,2.83" />
  <polygon points="4.32,2.86 4.51,2.92 4.85,3.10 5.12,3.37 5.27,3.62 5.45,3.34 5.73,3.07 6.07,2.90 6.26,2.85 6.73,2.84 6.99,2.91 7.23,3.03 7.62,3.38 7.85,3.87 7.89,4.14 7.84,4.68 7.77,4.92 7.53,5.35 6.98,5.96 5.69,7.17 5.27,7.70 4.86,7.17 4.43,6.72 3.47,5.85 3.12,5.47 2.84,5.07 2.67,4.61 2.64,4.07 2.69,3.80 2.80,3.55 3.14,3.14 3.60,2.89 3.87,2.83" />
  <polygon points="-0.95,-2.40 -0.76,-2.35 -0.42,-2.16 -0.14,-1.89 0.01,-1.64 0.18,-1.93 0.46,-2.19 0.81,-2.36 1.00,-2.41 1.46,-2.42 1.73,-2.35 1.97,-2.23 2.36,-1.88 2.59,-1.40 2.63,-1.12 2.58,-0.58 2.50,-0.34 2.27,0.09 1.72,0.70 0.42,1.91 0.01,2.44 -0.40,1.91 -0.83,1.46 -1.79,0.59 -2.15,0.21 -2.42,-0.20 -2.59,-0.66 -2.62,-1.19 -2.57,-1.46 -2.46,-1.71 -2.13,-2.12 -1.66,-2.37 -1.39,-2.43" />
  <polygon points="9.58,-2.40 9.77,-2.35 10.11,-2.16 10.38,-1.89 10.53,-1.64 10.71,-1.93 10.99,-2.19 11.33,-2.36 11.52,-2.41 11.99,-2.42 12.25,-2.35 12.50,-2.23 12.89,-1.88 13.11,-1.40 13.16,-1.12 13.10,-0.58 13.03,-0.34 12.80,0.09 12.24,0.70 10.95,1.91 10.53,2.44 10.13,1.91 9.69,1.46 8.74,0.59 8.38,0.21 8.10,-0.20 7.94,-0.66 7.90,-1.19 7.96,-1.46 8.06,-1.71 8.40,-2.12 8.87,-2.37 9.14,-2.43" />
  <polygon points="-6.21,-7.67 -6.02,-7.61 -5.68,-7.42 -5.41,-7.15 -5.26,-6.90 -5.08,-7.19 -4.80,-7.45 -4.46,-7.63 -4.27,-7.68 -3.80,-7.68 -3.54,-7.61 -3.29,-7.50 -2.90,-7.14 -2.67,-6.66 -2.63,-6.39 -2.69,-5.85 -2.76,-5.61 -2.99,-5.18 -3.55,-4.56 -4.84,-3.35 -5.26,-2.83 -5.66,-3.35 -6.10,-3.80 -7.05,-4.67 -7.41,-5.05 -7.69,-5.46 -7.85,-5.92 -7.89,-6.46 -7.83,-6.73 -7.73,-6.97 -7.39,-7.38 -6.92,-7.64 -6.65,-7.69" />
  <polygon points="-0.95,-7.67 -0.76,-7.61 -0.42,-7.42 -0.14,-7.15 0.01,-6.90 0.18,-7.19 0.46,-7.45 0.81,-7.63 1.00,-7.68 1.46,-7.68 1.73,-7.61 1.97,-7.50 2.36,-7.14 2.59,-6.66 2.63,-6.39 2.58,-5.85 2.50,-5.61 2.27,-5.18 1.72,-4.56 0.42,-3.35 0.01,-2.83 -0.40,-3.35 -0.83,-3.80 -1.79,-4.67 -2.15,-5.05 -2.42,-5.46 -2.59,-5.92 -2.62,-6.46 -2.57,-6.73 -2.46,-6.97 -2.13,-7.38 -1.66,-7.64 -1.39,-7.69" />
  <polygon points="-11.47,-12.93 -11.28,-12.87 -10.94,-12.69 -10.67,-12.42 -10.52,-12.17 -10.34,-12.45 -10.06,-12.71 -9.72,-12.89 -9.53,-12.94 -9.06,-12.95 -8.80,-12.88 -8.56,-12.76 -8.17,-12.41 -7.94,-11.92 -7.90,-11.65 -7.95,-11.11 -8.02,-10.87 -8.25,-10.44 -8.81,-9.83 -10.10,-8.62 -10.52,-8.09 -10.92,-8.62 -11.36,-9.07 -12.32,-9.94 -12.67,-10.32 -12.95,-10.72 -13.12,-11.18 -13.15,-11.72 -13.10,-11.99 -12.99,-12.24 -12.65,-12.65 -12.19,-12.90 -11.92,-12.95" />
  <polygon points="-6.21,-12.93 -6.02,-12.87 -5.68,-12.69 -5.41,-12.42 -5.26,-12.17 -5.08,-12.45 -4.80,-12.71 -4.46,-12.89 -4.27,-12.94 -3.80,-12.95 -3.54,-12.88 -3.29,-12.76 -2.90,-12.41 -2.67,-11.92 -2.63,-11.65 -2.69,-11.11 -2.76,-10.87 -2.99,-10.44 -3.55,-9.83 -4.84,-8.62 -5.26,-8.09 -5.66,-8.62 -6.10,-9.07 -7.05,-9.94 -7.41,-10.32 -7.69,-10.72 -7.85,-11.18 -7.89,-11.72 -7.83,-11.99 -7.73,-12.24 -7.39,-12.65 -6.92,-12.90 -6.65,-12.95" />
  <polygon points="-0.95,-12.93 -0.76,-12.87 -0.42,-12.69 -0.14,-12.42 0.01,-12.17 0.18,-12.45 0.46,-12.71 0.81,-12.89 1.00,-12.94 1.46,-12.95 1.73,-12.88 1.97,-12.76 2.36,-12.41 2.59,-11.92 2.63,-11.65 2.58,-11.11 2.50,-10.87 2.27,-10.44 1.72,-9.83 0.42,-8.62 0.01,-8.09 -0.40,-8.62 -0.83,-9.07 -1.79,-9.94 -2.15,-10.32 -2.42,-10.72 -2.59,-11.18 -2.62,-11.72 -2.57,-11.99 -2.46,-12.24 -2.13,-12.65 -1.66,-12.90 -1.39,-12.95" />
  <polygon points="9.58,-12.93 9.77,-12.87 10.11,-12.69 10.38,-12.42 10.53,-12.17 10.71,-12.45 10.99,-12.71 11.33,-12.89 11.52,-12.94 11.99,-12.95 12.25,-12.88 12.50,-12.76 12.89,-12.41 13.11,-11.92 13.16,-11.65 13.10,-11.11 13.03,-10.87 12.80,-10.44 12.24,-9.83 10.95,-8.62 10.53,-8.09 10.13,-8.62 9.69,-9.07 8.74,-9.94 8.38,-10.32 8.10,-10.72 7.94,-11.18 7.90,-11.72 7.96,-11.99 8.06,-12.24 8.40,-12.65 8.87,-12.90 9.14,-12.95" />
</svg>