

<svg xmlns="http://www.w3.org/2000/svg" viewBox="-15 -15 30 30" fill="black" stroke="none">
  <path d="M -8.76,-12.28 -7.03,-12.28 -7.03,-12.29 -3.50,-12.29 -3.50,-12.28 -1.76,-12.28 -1.76,-12.29 1.76,-12.29 1.76,-8.76 1.75,-8.76 1.75,-7.03 1.76,-7.03 1.76,-3.50 1.75,-3.50 1.75,-1.76 1.76,-1.76 1.76,1.76 -1.76,1.76 -1.76,-1.76 -1.75,-1.76 -1.75,-3.50 -1.76,-3.51 -3.50,-3.51 -3.50,-3.50 -7.03,-3.50 -7.03,-7.03 -7.01,-7.03 -7.01,-8.76 -7.03,-8.78 -8.76,-8.78 -8.76,-8.76 -12.29,-8.76 -12.29,-12.29 -8.76,-12.29 Z 
           M -4.11,-8.80 -1.76,-8.80 -1.76,-6.45 -4.11,-6.45 Z" fill-rule="evenodd" />
  <polygon points="-8.76,7.03 -8.78,7.03 -8.78,8.76 -8.76,8.78 -7.03,8.78 -7.03,8.76 -3.50,8.76 -3.50,12.29 -7.03,12.29 -7.03,12.28 -8.76,12.28 -8.76,12.29 -12.29,12.29 -12.29,8.76 -12.28,8.76 -12.28,7.03 -12.29,7.03 -12.29,3.50 -8.76,3.50" />
  <polygon points="7.03,7.03 7.01,7.03 7.01,8.76 7.03,8.76 7.03,12.29 3.50,12.29 3.50,8.76 3.51,8.76 3.51,7.03 3.50,7.03 3.50,3.50 7.03,3.50" />
  <polygon points="12.29,1.76 8.76,1.76 8.76,-1.76 12.29,-1.76" />
  <polygon points="12.29,-8.76 8.76,-8.76 8.76,-12.29 12.29,-12.29" />
</svg>