<svg xmlns="http://www.w3.org/2000/svg" viewBox="-15 -15 30 30" fill="black" stroke="none">
  <polygon points="-7.90,9.44 -7.90,11.62 -9.44,13.16 -11.62,13.16 -13.16,11.62 -13.16,9.44 -11.62,7.90 -9.44,7.90" />
  <polygon points="-2.63,9.44 -2.63,11.62 -4.17,13.16 -6.35,13.16 -7.89,11.62 -7.89,9.44 -6.35,7.90 -4.17,7.90" />
  <polygon points="7.89,9.44 7.89,11.62 6.35,13.16 4.17,13.16 2.63,11.62 2.63,9.44 4.17,7.90 6.35,7.90" />
  <polygon points="-7.90,4.17 -7.90,6.35 -9.44,7.89 -11.62,7.89 -13.16,6.35 -13.16,4.17 -11.62,2.63 -9.44,2.63" />
  <polygon points="7.89,4.17 7.89,6.35 6.35,7.89 4.17,7.89 2.63,6.35 2.63,4.17 4.17,2.63 6.35,2.63" />
  <polygon points="2.63,-1.09 2.63,1.09 1.09,2.63 -1.09,2.63 -2.63,1.09 -2.63,-1.09 -1.09,-2.63 1.09,-2.63" />
  <polygon points="13.16,-1.09 13.16,1.09 11.62,2.63 9.44,2.63 7.90,1.09 7.90,-1.09 9.44,-2.63 11.62,-2.63" />
  <polygon points="-2.63,-6.35 -2.63,-4.17 -4.17,-2.63 -6.35,-2.63 -7.89,-4.17 -7.89,-6.35 -6.35,-7.89 -4.17,-7.89" />
  <polygon points="2.63,-6.35 2.63,-4.17 1.09,-2.63 -1.09,-2.63 -2.63,-4.17 -2.63,-6.35 -1.09,-7.89 1.09,-7.89" />
  <polygon points="-7.90,-11.62 -7.90,-9.44 -9.44,-7.90 -11.62,-7.90 -13.16,-9.44 -13.16,-11.62 -11.62,-13.16 -9.44,-13.16" />
  <polygon points="-2.63,-11.62 -2.63,-9.44 -4.17,-7.90 -6.35,-7.90 -7.89,-9.44 -7.89,-11.62 -6.35,-13.16 -4.17,-13.16" />
  <polygon points="2.63,-11.62 2.63,-9.44 1.09,-7.90 -1.09,-7.90 -2.63,-9.44 -2.63,-11.62 -1.09,-13.16 1.09,-13.16" />
  <polygon points="13.16,-11.62 13.16,-9.44 11.62,-7.90 9.44,-7.90 7.90,-9.44 7.90,-11.62 9.44,-13.16 11.62,-13.16" />
</svg>