<svg xmlns="http://www.w3.org/2000/svg" viewBox="0 0 168 168" width="200" height="200">
  <!-- Top row -->
  <circle cx="10" cy="10" r="10" fill="black" />
  <circle cx="34" cy="10" r="10" fill="black" />
  <circle cx="58" cy="10" r="10" fill="black" />
  <circle cx="82" cy="10" r="10" fill="black" />
  <circle cx="106" cy="10" r="10" fill="black" />
  <circle cx="130" cy="10" r="10" fill="black" />
  <circle cx="154" cy="10" r="10" fill="black" />

  <!-- Left and right columns -->
  <circle cx="10" cy="34" r="10" fill="black" />
  <circle cx="154" cy="34" r="10" fill="black" />
  <circle cx="10" cy="58" r="10" fill="black" />
  <circle cx="154" cy="58" r="10" fill="black" />
  <circle cx="10" cy="82" r="10" fill="black" />
  <circle cx="154" cy="82" r="10" fill="black" />
  <circle cx="10" cy="106" r="10" fill="black" />
  <circle cx="154" cy="106" r="10" fill="black" />
  <circle cx="10" cy="130" r="10" fill="black" />
  <circle cx="154" cy="130" r="10" fill="black" />
  <circle cx="10" cy="154" r="10" fill="black" />
  <circle cx="154" cy="154" r="10" fill="black" />

  <!-- Bottom row -->
  <circle cx="34" cy="154" r="10" fill="black" />
  <circle cx="58" cy="154" r="10" fill="black" />
  <circle cx="82" cy="154" r="10" fill="black" />
  <circle cx="106" cy="154" r="10" fill="black" />
  <circle cx="130" cy="154" r="10" fill="black" />
</svg>