<svg xmlns="http://www.w3.org/2000/svg" viewBox="0 0 168 168" width="200" height="200">
  <!-- Top row -->
  <rect x="0" y="0" width="20" height="20" fill="black" />
  <rect x="24" y="0" width="20" height="20" fill="black" />
  <rect x="48" y="0" width="20" height="20" fill="black" />
  <rect x="72" y="0" width="20" height="20" fill="black" />
  <rect x="96" y="0" width="20" height="20" fill="black" />
  <rect x="120" y="0" width="20" height="20" fill="black" />
  <rect x="144" y="0" width="20" height="20" fill="black" />

  <!-- Left and right columns -->
  <rect x="0" y="24" width="20" height="20" fill="black" />
  <rect x="144" y="24" width="20" height="20" fill="black" />
  <rect x="0" y="48" width="20" height="20" fill="black" />
  <rect x="144" y="48" width="20" height="20" fill="black" />
  <rect x="0" y="72" width="20" height="20" fill="black" />
  <rect x="144" y="72" width="20" height="20" fill="black" />
  <rect x="0" y="96" width="20" height="20" fill="black" />
  <rect x="144" y="96" width="20" height="20" fill="black" />
  <rect x="0" y="120" width="20" height="20" fill="black" />
  <rect x="144" y="120" width="20" height="20" fill="black" />
  <rect x="0" y="144" width="20" height="20" fill="black" />
  <rect x="144" y="144" width="20" height="20" fill="black" />

  <!-- Bottom row -->
  <rect x="24" y="144" width="20" height="20" fill="black" />
  <rect x="48" y="144" width="20" height="20" fill="black" />
  <rect x="72" y="144" width="20" height="20" fill="black" />
  <rect x="96" y="144" width="20" height="20" fill="black" />
  <rect x="120" y="144" width="20" height="20" fill="black" />
</svg>