<svg xmlns="http://www.w3.org/2000/svg" viewBox="-15 -15 30 30" fill="black" stroke="none">
  <polygon points="-9.21,9.21 -7.90,9.21 -7.90,11.84 -9.21,11.84 -9.21,13.16 -11.84,13.16 -11.84,11.84 -13.16,11.84 -13.16,9.21 -11.84,9.21 -11.84,7.90 -9.21,7.90" />
  <polygon points="-3.95,9.21 -2.63,9.21 -2.63,11.84 -3.95,11.84 -3.95,13.16 -6.58,13.16 -6.58,11.84 -7.89,11.84 -7.89,9.21 -6.58,9.21 -6.58,7.90 -3.95,7.90" />
  <polygon points="6.58,9.21 7.89,9.21 7.89,11.84 6.58,11.84 6.58,13.16 3.95,13.16 3.95,11.84 2.63,11.84 2.63,9.21 3.95,9.21 3.95,7.90 6.58,7.90" />
  <polygon points="-9.21,3.95 -7.90,3.95 -7.90,6.58 -9.21,6.58 -9.21,7.89 -11.84,7.89 -11.84,6.58 -13.16,6.58 -13.16,3.95 -11.84,3.95 -11.84,2.63 -9.21,2.63" />
  <polygon points="6.58,3.95 7.89,3.95 7.89,6.58 6.58,6.58 6.58,7.89 3.95,7.89 3.95,6.58 2.63,6.58 2.63,3.95 3.95,3.95 3.95,2.63 6.58,2.63" />
  <polygon points="1.32,-1.32 2.63,-1.32 2.63,1.32 1.32,1.32 1.32,2.63 -1.32,2.63 -1.32,1.32 -2.63,1.32 -2.63,-1.32 -1.32,-1.32 -1.32,-2.63 1.32,-2.63" />
  <polygon points="11.84,-1.32 13.16,-1.32 13.16,1.32 11.84,1.32 11.84,2.63 9.21,2.63 9.21,1.32 7.90,1.32 7.90,-1.32 9.21,-1.32 9.21,-2.63 11.84,-2.63" />
  <polygon points="-3.95,-6.58 -2.63,-6.58 -2.63,-3.95 -3.95,-3.95 -3.95,-2.63 -6.58,-2.63 -6.58,-3.95 -7.89,-3.95 -7.89,-6.58 -6.58,-6.58 -6.58,-7.89 -3.95,-7.89" />
  <polygon points="1.32,-6.58 2.63,-6.58 2.63,-3.95 1.32,-3.95 1.32,-2.63 -1.32,-2.63 -1.32,-3.95 -2.63,-3.95 -2.63,-6.58 -1.32,-6.58 -1.32,-7.89 1.32,-7.89" />
  <polygon points="-9.21,-11.84 -7.90,-11.84 -7.90,-9.21 -9.21,-9.21 -9.21,-7.90 -11.84,-7.90 -11.84,-9.21 -13.16,-9.21 -13.16,-11.84 -11.84,-11.84 -11.84,-13.16 -9.21,-13.16" />
  <polygon points="-3.95,-11.84 -2.63,-11.84 -2.63,-9.21 -3.95,-9.21 -3.95,-7.90 -6.58,-7.90 -6.58,-9.21 -7.89,-9.21 -7.89,-11.84 -6.58,-11.84 -6.58,-13.16 -3.95,-13.16" />
  <polygon points="1.32,-11.84 2.63,-11.84 2.63,-9.21 1.32,-9.21 1.32,-7.90 -1.32,-7.90 -1.32,-9.21 -2.63,-9.21 -2.63,-11.84 -1.32,-11.84 -1.32,-13.16 1.32,-13.16" />
  <polygon points="11.84,-11.84 13.16,-11.84 13.16,-9.21 11.84,-9.21 11.84,-7.90 9.21,-7.90 9.21,-9.21 7.90,-9.21 7.90,-11.84 9.21,-11.84 9.21,-13.16 11.84,-13.16" />
</svg>