<svg xmlns="http://www.w3.org/2000/svg" viewBox="-15 -15 30 30" fill="black" stroke="none">
  <polygon points="-8.71,7.99 -8.28,8.28 -7.99,8.71 -7.92,8.95 -7.89,11.84 -7.99,12.35 -8.28,12.77 -8.48,12.94 -8.95,13.13 -12.10,13.13 -12.57,12.94 -12.77,12.77 -13.06,12.35 -13.13,12.10 -13.13,8.95 -12.94,8.48 -12.77,8.28 -12.35,7.99 -12.10,7.92 -9.21,7.89" />
  <polygon points="-3.44,7.99 -3.02,8.28 -2.73,8.71 -2.66,8.95 -2.63,11.84 -2.73,12.35 -3.02,12.77 -3.22,12.94 -3.69,13.13 -6.84,13.13 -7.31,12.94 -7.51,12.77 -7.79,12.35 -7.87,12.10 -7.87,8.95 -7.67,8.48 -7.51,8.28 -7.08,7.99 -6.84,7.92 -3.95,7.89" />
  <polygon points="7.08,7.99 7.51,8.28 7.79,8.71 7.87,8.95 7.89,11.84 7.79,12.35 7.51,12.77 7.31,12.94 6.84,13.13 3.69,13.13 3.22,12.94 3.02,12.77 2.73,12.35 2.66,12.10 2.66,8.95 2.85,8.48 3.02,8.28 3.44,7.99 3.69,7.92 6.58,7.89" />
  <polygon points="-8.71,2.73 -8.28,3.02 -7.99,3.44 -7.92,3.69 -7.89,6.58 -7.99,7.08 -8.28,7.51 -8.48,7.67 -8.95,7.87 -12.10,7.87 -12.57,7.67 -12.77,7.51 -13.06,7.08 -13.13,6.84 -13.13,3.69 -12.94,3.22 -12.77,3.02 -12.35,2.73 -12.10,2.66 -9.21,2.63" />
  <polygon points="7.08,2.73 7.51,3.02 7.79,3.44 7.87,3.69 7.89,6.58 7.79,7.08 7.51,7.51 7.31,7.67 6.84,7.87 3.69,7.87 3.22,7.67 3.02,7.51 2.73,7.08 2.66,6.84 2.66,3.69 2.85,3.22 3.02,3.02 3.44,2.73 3.69,2.66 6.58,2.63" />
  <polygon points="1.82,-2.53 2.25,-2.25 2.53,-1.82 2.61,-1.57 2.63,1.32 2.53,1.82 2.25,2.25 2.05,2.41 1.57,2.61 -1.57,2.61 -2.05,2.41 -2.25,2.25 -2.53,1.82 -2.61,1.57 -2.61,-1.57 -2.41,-2.05 -2.25,-2.25 -1.82,-2.53 -1.57,-2.61 1.32,-2.63" />
  <polygon points="12.35,-2.53 12.77,-2.25 13.06,-1.82 13.13,-1.57 13.16,1.32 13.06,1.82 12.77,2.25 12.57,2.41 12.10,2.61 8.95,2.61 8.48,2.41 8.28,2.25 7.99,1.82 7.92,1.57 7.92,-1.57 8.12,-2.05 8.28,-2.25 8.71,-2.53 8.95,-2.61 11.84,-2.63" />
  <polygon points="-3.44,-7.79 -3.02,-7.51 -2.73,-7.08 -2.66,-6.84 -2.63,-3.95 -2.73,-3.44 -3.02,-3.02 -3.22,-2.85 -3.69,-2.66 -6.84,-2.66 -7.31,-2.85 -7.51,-3.02 -7.79,-3.44 -7.87,-3.69 -7.87,-6.84 -7.67,-7.31 -7.51,-7.51 -7.08,-7.79 -6.84,-7.87 -3.95,-7.89" />
  <polygon points="1.82,-7.79 2.25,-7.51 2.53,-7.08 2.61,-6.84 2.63,-3.95 2.53,-3.44 2.25,-3.02 2.05,-2.85 1.57,-2.66 -1.57,-2.66 -2.05,-2.85 -2.25,-3.02 -2.53,-3.44 -2.61,-3.69 -2.61,-6.84 -2.41,-7.31 -2.25,-7.51 -1.82,-7.79 -1.57,-7.87 1.32,-7.89" />
  <polygon points="-8.71,-13.06 -8.28,-12.77 -7.99,-12.35 -7.92,-12.10 -7.89,-9.21 -7.99,-8.71 -8.28,-8.28 -8.48,-8.12 -8.95,-7.92 -12.10,-7.92 -12.57,-8.12 -12.77,-8.28 -13.06,-8.71 -13.13,-8.95 -13.13,-12.10 -12.94,-12.57 -12.77,-12.77 -12.35,-13.06 -12.10,-13.13 -9.21,-13.16" />
  <polygon points="-3.44,-13.06 -3.02,-12.77 -2.73,-12.35 -2.66,-12.10 -2.63,-9.21 -2.73,-8.71 -3.02,-8.28 -3.22,-8.12 -3.69,-7.92 -6.84,-7.92 -7.31,-8.12 -7.51,-8.28 -7.79,-8.71 -7.87,-8.95 -7.87,-12.10 -7.67,-12.57 -7.51,-12.77 -7.08,-13.06 -6.84,-13.13 -3.95,-13.16" />
  <polygon points="1.82,-13.06 2.25,-12.77 2.53,-12.35 2.61,-12.10 2.63,-9.21 2.53,-8.71 2.25,-8.28 2.05,-8.12 1.57,-7.92 -1.57,-7.92 -2.05,-8.12 -2.25,-8.28 -2.53,-8.71 -2.61,-8.95 -2.61,-12.10 -2.41,-12.57 -2.25,-12.77 -1.82,-13.06 -1.57,-13.13 1.32,-13.16" />
  <polygon points="12.35,-13.06 12.77,-12.77 13.06,-12.35 13.13,-12.10 13.16,-9.21 13.06,-8.71 12.77,-8.28 12.57,-8.12 12.10,-7.92 8.95,-7.92 8.48,-8.12 8.28,-8.28 7.99,-8.71 7.92,-8.95 7.92,-12.10 8.12,-12.57 8.28,-12.77 8.71,-13.06 8.95,-13.13 11.84,-13.16" />
</svg>