<svg xmlns="http://www.w3.org/2000/svg" viewBox="-15 -15 30 30" fill="black" stroke="none">
  <polygon points="-8.47,8.55 -8.88,9.21 -9.13,9.87 -9.21,10.53 -9.19,10.86 -9.03,11.51 -8.88,11.84 -8.47,12.50 -7.89,13.16 -8.55,12.58 -9.21,12.17 -9.87,11.92 -10.53,11.84 -10.86,11.86 -11.51,12.03 -11.84,12.17 -12.50,12.58 -13.16,13.16 -12.58,12.50 -12.17,11.84 -11.92,11.18 -11.84,10.53 -11.86,10.20 -12.03,9.54 -12.17,9.21 -12.58,8.55 -13.16,7.89 -12.50,8.47 -11.84,8.88 -11.18,9.13 -10.53,9.21 -10.20,9.19 -9.54,9.03 -9.21,8.88 -8.55,8.47 -7.89,7.89" />
  <polygon points="-3.21,8.55 -3.62,9.21 -3.87,9.87 -3.95,10.53 -3.93,10.86 -3.76,11.51 -3.62,11.84 -3.21,12.50 -2.63,13.16 -3.29,12.58 -3.95,12.17 -4.61,11.92 -5.26,11.84 -5.59,11.86 -6.25,12.03 -6.58,12.17 -7.24,12.58 -7.89,13.16 -7.32,12.50 -6.91,11.84 -6.66,11.18 -6.58,10.53 -6.60,10.20 -6.76,9.54 -6.91,9.21 -7.32,8.55 -7.89,7.89 -7.24,8.47 -6.58,8.88 -5.92,9.13 -5.26,9.21 -4.93,9.19 -4.28,9.03 -3.95,8.88 -3.29,8.47 -2.63,7.89" />
  <polygon points="7.32,8.55 6.91,9.21 6.66,9.87 6.58,10.53 6.60,10.86 6.76,11.51 6.91,11.84 7.32,12.50 7.89,13.16 7.24,12.58 6.58,12.17 5.92,11.92 5.26,11.84 4.93,11.86 4.28,12.03 3.95,12.17 3.29,12.58 2.63,13.16 3.21,12.50 3.62,11.84 3.87,11.18 3.95,10.53 3.93,10.20 3.76,9.54 3.62,9.21 3.21,8.55 2.63,7.89 3.29,8.47 3.95,8.88 4.61,9.13 5.26,9.21 5.59,9.19 6.25,9.03 6.58,8.88 7.24,8.47 7.89,7.89" />
  <polygon points="-8.47,3.29 -8.88,3.95 -9.13,4.61 -9.21,5.26 -9.19,5.59 -9.03,6.25 -8.88,6.58 -8.47,7.24 -7.89,7.89 -8.55,7.32 -9.21,6.91 -9.87,6.66 -10.53,6.58 -10.86,6.60 -11.51,6.76 -11.84,6.91 -12.50,7.32 -13.16,7.89 -12.58,7.24 -12.17,6.58 -11.92,5.92 -11.84,5.26 -11.86,4.93 -12.03,4.28 -12.17,3.95 -12.58,3.29 -13.16,2.63 -12.50,3.21 -11.84,3.62 -11.18,3.87 -10.53,3.95 -10.20,3.93 -9.54,3.76 -9.21,3.62 -8.55,3.21 -7.89,2.63" />
  <polygon points="7.32,3.29 6.91,3.95 6.66,4.61 6.58,5.26 6.60,5.59 6.76,6.25 6.91,6.58 7.32,7.24 7.89,7.89 7.24,7.32 6.58,6.91 5.92,6.66 5.26,6.58 4.93,6.60 4.28,6.76 3.95,6.91 3.29,7.32 2.63,7.89 3.21,7.24 3.62,6.58 3.87,5.92 3.95,5.26 3.93,4.93 3.76,4.28 3.62,3.95 3.21,3.29 2.63,2.63 3.29,3.21 3.95,3.62 4.61,3.87 5.26,3.95 5.59,3.93 6.25,3.76 6.58,3.62 7.24,3.21 7.89,2.63" />
  <polygon points="2.06,-1.97 1.64,-1.32 1.40,-0.66 1.32,-0.00 1.34,0.33 1.50,0.99 1.64,1.32 2.06,1.97 2.63,2.63 1.97,2.06 1.32,1.64 0.66,1.40 -0.00,1.32 -0.33,1.34 -0.99,1.50 -1.32,1.64 -1.97,2.06 -2.63,2.63 -2.06,1.97 -1.64,1.32 -1.40,0.66 -1.32,-0.00 -1.34,-0.33 -1.50,-0.99 -1.64,-1.32 -2.06,-1.97 -2.63,-2.63 -1.97,-2.06 -1.32,-1.64 -0.66,-1.40 -0.00,-1.32 0.33,-1.34 0.99,-1.50 1.32,-1.64 1.97,-2.06 2.63,-2.63" />
  <polygon points="12.58,-1.97 12.17,-1.32 11.92,-0.66 11.84,-0.00 11.86,0.33 12.03,0.99 12.17,1.32 12.58,1.97 13.16,2.63 12.50,2.06 11.84,1.64 11.18,1.40 10.53,1.32 10.20,1.34 9.54,1.50 9.21,1.64 8.55,2.06 7.89,2.63 8.47,1.97 8.88,1.32 9.13,0.66 9.21,-0.00 9.19,-0.33 9.03,-0.99 8.88,-1.32 8.47,-1.97 7.89,-2.63 8.55,-2.06 9.21,-1.64 9.87,-1.40 10.53,-1.32 10.86,-1.34 11.51,-1.50 11.84,-1.64 12.50,-2.06 13.16,-2.63" />
  <polygon points="-3.21,-7.24 -3.62,-6.58 -3.87,-5.92 -3.95,-5.26 -3.93,-4.93 -3.76,-4.28 -3.62,-3.95 -3.21,-3.29 -2.63,-2.63 -3.29,-3.21 -3.95,-3.62 -4.61,-3.87 -5.26,-3.95 -5.59,-3.93 -6.25,-3.76 -6.58,-3.62 -7.24,-3.21 -7.89,-2.63 -7.32,-3.29 -6.91,-3.95 -6.66,-4.61 -6.58,-5.26 -6.60,-5.59 -6.76,-6.25 -6.91,-6.58 -7.32,-7.24 -7.89,-7.89 -7.24,-7.32 -6.58,-6.91 -5.92,-6.66 -5.26,-6.58 -4.93,-6.60 -4.28,-6.76 -3.95,-6.91 -3.29,-7.32 -2.63,-7.89" />
  <polygon points="2.06,-7.24 1.64,-6.58 1.40,-5.92 1.32,-5.26 1.34,-4.93 1.50,-4.28 1.64,-3.95 2.06,-3.29 2.63,-2.63 1.97,-3.21 1.32,-3.62 0.66,-3.87 -0.00,-3.95 -0.33,-3.93 -0.99,-3.76 -1.32,-3.62 -1.97,-3.21 -2.63,-2.63 -2.06,-3.29 -1.64,-3.95 -1.40,-4.61 -1.32,-5.26 -1.34,-5.59 -1.50,-6.25 -1.64,-6.58 -2.06,-7.24 -2.63,-7.89 -1.97,-7.32 -1.32,-6.91 -0.66,-6.66 -0.00,-6.58 0.33,-6.60 0.99,-6.76 1.32,-6.91 1.97,-7.32 2.63,-7.89" />
  <polygon points="-12.50,-12.58 -11.84,-12.17 -11.18,-11.92 -10.53,-11.84 -10.20,-11.86 -9.54,-12.03 -9.21,-12.17 -8.55,-12.58 -7.89,-13.16 -8.47,-12.50 -8.88,-11.84 -9.13,-11.18 -9.21,-10.53 -9.19,-10.20 -9.03,-9.54 -8.88,-9.21 -8.47,-8.55 -7.89,-7.89 -8.55,-8.47 -9.21,-8.88 -9.87,-9.13 -10.53,-9.21 -10.86,-9.19 -11.51,-9.03 -11.84,-8.88 -12.50,-8.47 -13.16,-7.89 -12.58,-8.55 -12.17,-9.21 -11.92,-9.87 -11.84,-10.53 -11.86,-10.86 -12.03,-11.51 -12.17,-11.84 -12.58,-12.50 -13.16,-13.16" />
  <polygon points="-7.24,-12.58 -6.58,-12.17 -5.92,-11.92 -5.26,-11.84 -4.93,-11.86 -4.28,-12.03 -3.95,-12.17 -3.29,-12.58 -2.63,-13.16 -3.21,-12.50 -3.62,-11.84 -3.87,-11.18 -3.95,-10.53 -3.93,-10.20 -3.76,-9.54 -3.62,-9.21 -3.21,-8.55 -2.63,-7.89 -3.29,-8.47 -3.95,-8.88 -4.61,-9.13 -5.26,-9.21 -5.59,-9.19 -6.25,-9.03 -6.58,-8.88 -7.24,-8.47 -7.89,-7.89 -7.32,-8.55 -6.91,-9.21 -6.66,-9.87 -6.58,-10.53 -6.60,-10.86 -6.76,-11.51 -6.91,-11.84 -7.32,-12.50 -7.89,-13.16" />
  <polygon points="-1.97,-12.58 -1.32,-12.17 -0.66,-11.92 -0.00,-11.84 0.33,-11.86 0.99,-12.03 1.32,-12.17 1.97,-12.58 2.63,-13.16 2.06,-12.50 1.64,-11.84 1.40,-11.18 1.32,-10.53 1.34,-10.20 1.50,-9.54 1.64,-9.21 2.06,-8.55 2.63,-7.89 1.97,-8.47 1.32,-8.88 0.66,-9.13 -0.00,-9.21 -0.33,-9.19 -0.99,-9.03 -1.32,-8.88 -1.97,-8.47 -2.63,-7.89 -2.06,-8.55 -1.64,-9.21 -1.40,-9.87 -1.32,-10.53 -1.34,-10.86 -1.50,-11.51 -1.64,-11.84 -2.06,-12.50 -2.63,-13.16" />
  <polygon points="8.55,-12.58 9.21,-12.17 9.87,-11.92 10.53,-11.84 10.86,-11.86 11.51,-12.03 11.84,-12.17 12.50,-12.58 13.16,-13.16 12.58,-12.50 12.17,-11.84 11.92,-11.18 11.84,-10.53 11.86,-10.20 12.03,-9.54 12.17,-9.21 12.58,-8.55 13.16,-7.89 12.50,-8.47 11.84,-8.88 11.18,-9.13 10.53,-9.21 10.20,-9.19 9.54,-9.03 9.21,-8.88 8.55,-8.47 7.89,-7.89 8.47,-8.55 8.88,-9.21 9.13,-9.87 9.21,-10.53 9.19,-10.86 9.03,-11.51 8.88,-11.84 8.47,-12.50 7.89,-13.16" />
</svg>