<svg xmlns="http://www.w3.org/2000/svg" viewBox="-15 -15 30 30" fill="black" stroke="none">
  <polygon points="-8.89,8.25 -8.68,8.36 -8.36,8.68 -8.25,8.89 -8.16,9.34 -8.18,11.94 -8.36,12.37 -8.68,12.70 -9.11,12.87 -11.94,12.87 -12.37,12.70 -12.70,12.37 -12.87,11.94 -12.87,9.11 -12.70,8.68 -12.37,8.36 -11.94,8.18 -9.34,8.16" />
  <polygon points="-3.63,8.25 -3.42,8.36 -3.09,8.68 -2.98,8.89 -2.89,9.34 -2.92,11.94 -3.09,12.37 -3.42,12.70 -3.85,12.87 -6.68,12.87 -7.11,12.70 -7.43,12.37 -7.61,11.94 -7.61,9.11 -7.43,8.68 -7.11,8.36 -6.68,8.18 -4.08,8.16" />
  <polygon points="6.90,8.25 7.11,8.36 7.43,8.68 7.54,8.89 7.63,9.34 7.61,11.94 7.43,12.37 7.11,12.70 6.68,12.87 3.85,12.87 3.42,12.70 3.09,12.37 2.92,11.94 2.92,9.11 3.09,8.68 3.42,8.36 3.85,8.18 6.45,8.16" />
  <polygon points="-8.89,2.98 -8.68,3.09 -8.36,3.42 -8.25,3.63 -8.16,4.08 -8.18,6.68 -8.36,7.11 -8.68,7.43 -9.11,7.61 -11.94,7.61 -12.37,7.43 -12.70,7.11 -12.87,6.68 -12.87,3.85 -12.70,3.42 -12.37,3.09 -11.94,2.92 -9.34,2.89" />
  <polygon points="6.90,2.98 7.11,3.09 7.43,3.42 7.54,3.63 7.63,4.08 7.61,6.68 7.43,7.11 7.11,7.43 6.68,7.61 3.85,7.61 3.42,7.43 3.09,7.11 2.92,6.68 2.92,3.85 3.09,3.42 3.42,3.09 3.85,2.92 6.45,2.89" />
  <polygon points="1.64,-2.28 1.84,-2.17 2.17,-1.84 2.28,-1.64 2.37,-1.18 2.35,1.42 2.17,1.84 1.84,2.17 1.42,2.35 -1.42,2.35 -1.84,2.17 -2.17,1.84 -2.35,1.42 -2.35,-1.42 -2.17,-1.84 -1.84,-2.17 -1.42,-2.35 1.18,-2.37" />
  <polygon points="12.16,-2.28 12.37,-2.17 12.70,-1.84 12.80,-1.64 12.89,-1.18 12.87,1.42 12.70,1.84 12.37,2.17 11.94,2.35 9.11,2.35 8.68,2.17 8.36,1.84 8.18,1.42 8.18,-1.42 8.36,-1.84 8.68,-2.17 9.11,-2.35 11.71,-2.37" />
  <polygon points="-3.63,-7.54 -3.42,-7.43 -3.09,-7.11 -2.98,-6.90 -2.89,-6.45 -2.92,-3.85 -3.09,-3.42 -3.42,-3.09 -3.85,-2.92 -6.68,-2.92 -7.11,-3.09 -7.43,-3.42 -7.61,-3.85 -7.61,-6.68 -7.43,-7.11 -7.11,-7.43 -6.68,-7.61 -4.08,-7.63" />
  <polygon points="1.64,-7.54 1.84,-7.43 2.17,-7.11 2.28,-6.90 2.37,-6.45 2.35,-3.85 2.17,-3.42 1.84,-3.09 1.42,-2.92 -1.42,-2.92 -1.84,-3.09 -2.17,-3.42 -2.35,-3.85 -2.35,-6.68 -2.17,-7.11 -1.84,-7.43 -1.42,-7.61 1.18,-7.63" />
  <polygon points="-8.89,-12.80 -8.68,-12.70 -8.36,-12.37 -8.25,-12.16 -8.16,-11.71 -8.18,-9.11 -8.36,-8.68 -8.68,-8.36 -9.11,-8.18 -11.94,-8.18 -12.37,-8.36 -12.70,-8.68 -12.87,-9.11 -12.87,-11.94 -12.70,-12.37 -12.37,-12.70 -11.94,-12.87 -9.34,-12.89" />
  <polygon points="-3.63,-12.80 -3.42,-12.70 -3.09,-12.37 -2.98,-12.16 -2.89,-11.71 -2.92,-9.11 -3.09,-8.68 -3.42,-8.36 -3.85,-8.18 -6.68,-8.18 -7.11,-8.36 -7.43,-8.68 -7.61,-9.11 -7.61,-11.94 -7.43,-12.37 -7.11,-12.70 -6.68,-12.87 -4.08,-12.89" />
  <polygon points="1.64,-12.80 1.84,-12.70 2.17,-12.37 2.28,-12.16 2.37,-11.71 2.35,-9.11 2.17,-8.68 1.84,-8.36 1.42,-8.18 -1.42,-8.18 -1.84,-8.36 -2.17,-8.68 -2.35,-9.11 -2.35,-11.94 -2.17,-12.37 -1.84,-12.70 -1.42,-12.87 1.18,-12.89" />
  <polygon points="12.16,-12.80 12.37,-12.70 12.70,-12.37 12.80,-12.16 12.89,-11.71 12.87,-9.11 12.70,-8.68 12.37,-8.36 11.94,-8.18 9.11,-8.18 8.68,-8.36 8.36,-8.68 8.18,-9.11 8.18,-11.94 8.36,-12.37 8.68,-12.70 9.11,-12.87 11.71,-12.89" />
</svg>