<svg xmlns="http://www.w3.org/2000/svg" viewBox="-15 -15 30 30" fill="black" stroke="none">
  <polygon points="-8.09,8.55 -8.22,9.21 -8.31,9.87 -8.33,10.53 -8.31,11.18 -8.22,11.84 -8.09,12.50 -7.89,13.16 -8.55,12.97 -9.21,12.83 -9.87,12.75 -10.53,12.72 -11.18,12.75 -11.84,12.83 -12.50,12.97 -13.16,13.16 -12.97,12.50 -12.83,11.84 -12.75,11.18 -12.72,10.53 -12.75,9.87 -12.83,9.21 -12.97,8.55 -13.16,7.89 -12.50,8.09 -11.84,8.22 -11.18,8.31 -10.53,8.33 -9.87,8.31 -9.21,8.22 -8.55,8.09 -7.89,7.89" />
  <polygon points="-2.82,8.55 -2.96,9.21 -3.04,9.87 -3.07,10.53 -3.04,11.18 -2.96,11.84 -2.82,12.50 -2.63,13.16 -3.29,12.97 -3.95,12.83 -4.61,12.75 -5.26,12.72 -5.92,12.75 -6.58,12.83 -7.24,12.97 -7.89,13.16 -7.70,12.50 -7.57,11.84 -7.48,11.18 -7.46,10.53 -7.48,9.87 -7.57,9.21 -7.70,8.55 -7.89,7.89 -7.24,8.09 -6.58,8.22 -5.92,8.31 -5.26,8.33 -4.61,8.31 -3.95,8.22 -3.29,8.09 -2.63,7.89" />
  <polygon points="7.70,8.55 7.57,9.21 7.48,9.87 7.46,10.53 7.48,11.18 7.57,11.84 7.70,12.50 7.89,13.16 7.24,12.97 6.58,12.83 5.92,12.75 5.26,12.72 4.61,12.75 3.95,12.83 3.29,12.97 2.63,13.16 2.82,12.50 2.96,11.84 3.04,11.18 3.07,10.53 3.04,9.87 2.96,9.21 2.82,8.55 2.63,7.89 3.29,8.09 3.95,8.22 4.61,8.31 5.26,8.33 5.92,8.31 6.58,8.22 7.24,8.09 7.89,7.89" />
  <polygon points="-8.09,3.29 -8.22,3.95 -8.31,4.61 -8.33,5.26 -8.31,5.92 -8.22,6.58 -8.09,7.24 -7.89,7.89 -8.55,7.70 -9.21,7.57 -9.87,7.48 -10.53,7.46 -11.18,7.48 -11.84,7.57 -12.50,7.70 -13.16,7.89 -12.97,7.24 -12.83,6.58 -12.75,5.92 -12.72,5.26 -12.75,4.61 -12.83,3.95 -12.97,3.29 -13.16,2.63 -12.50,2.82 -11.84,2.96 -11.18,3.04 -10.53,3.07 -9.87,3.04 -9.21,2.96 -8.55,2.82 -7.89,2.63" />
  <polygon points="7.70,3.29 7.57,3.95 7.48,4.61 7.46,5.26 7.48,5.92 7.57,6.58 7.70,7.24 7.89,7.89 7.24,7.70 6.58,7.57 5.92,7.48 5.26,7.46 4.61,7.48 3.95,7.57 3.29,7.70 2.63,7.89 2.82,7.24 2.96,6.58 3.04,5.92 3.07,5.26 3.04,4.61 2.96,3.95 2.82,3.29 2.63,2.63 3.29,2.82 3.95,2.96 4.61,3.04 5.26,3.07 5.92,3.04 6.58,2.96 7.24,2.82 7.89,2.63" />
  <polygon points="2.44,-1.97 2.30,-1.32 2.22,-0.66 2.19,-0.00 2.22,0.66 2.30,1.32 2.44,1.97 2.63,2.63 1.97,2.44 1.32,2.30 0.66,2.22 -0.00,2.19 -0.66,2.22 -1.32,2.30 -1.97,2.44 -2.63,2.63 -2.44,1.97 -2.30,1.32 -2.22,0.66 -2.19,-0.00 -2.22,-0.66 -2.30,-1.32 -2.44,-1.97 -2.63,-2.63 -1.97,-2.44 -1.32,-2.30 -0.66,-2.22 -0.00,-2.19 0.66,-2.22 1.32,-2.30 1.97,-2.44 2.63,-2.63" />
  <polygon points="12.97,-1.97 12.83,-1.32 12.75,-0.66 12.72,-0.00 12.75,0.66 12.83,1.32 12.97,1.97 13.16,2.63 12.50,2.44 11.84,2.30 11.18,2.22 10.53,2.19 9.87,2.22 9.21,2.30 8.55,2.44 7.89,2.63 8.09,1.97 8.22,1.32 8.31,0.66 8.33,-0.00 8.31,-0.66 8.22,-1.32 8.09,-1.97 7.89,-2.63 8.55,-2.44 9.21,-2.30 9.87,-2.22 10.53,-2.19 11.18,-2.22 11.84,-2.30 12.50,-2.44 13.16,-2.63" />
  <polygon points="-2.82,-7.24 -2.96,-6.58 -3.04,-5.92 -3.07,-5.26 -3.04,-4.61 -2.96,-3.95 -2.82,-3.29 -2.63,-2.63 -3.29,-2.82 -3.95,-2.96 -4.61,-3.04 -5.26,-3.07 -5.92,-3.04 -6.58,-2.96 -7.24,-2.82 -7.89,-2.63 -7.70,-3.29 -7.57,-3.95 -7.48,-4.61 -7.46,-5.26 -7.48,-5.92 -7.57,-6.58 -7.70,-7.24 -7.89,-7.89 -7.24,-7.70 -6.58,-7.57 -5.92,-7.48 -5.26,-7.46 -4.61,-7.48 -3.95,-7.57 -3.29,-7.70 -2.63,-7.89" />
  <polygon points="2.44,-7.24 2.30,-6.58 2.22,-5.92 2.19,-5.26 2.22,-4.61 2.30,-3.95 2.44,-3.29 2.63,-2.63 1.97,-2.82 1.32,-2.96 0.66,-3.04 -0.00,-3.07 -0.66,-3.04 -1.32,-2.96 -1.97,-2.82 -2.63,-2.63 -2.44,-3.29 -2.30,-3.95 -2.22,-4.61 -2.19,-5.26 -2.22,-5.92 -2.30,-6.58 -2.44,-7.24 -2.63,-7.89 -1.97,-7.70 -1.32,-7.57 -0.66,-7.48 -0.00,-7.46 0.66,-7.48 1.32,-7.57 1.97,-7.70 2.63,-7.89" />
  <polygon points="-12.50,-12.97 -11.84,-12.83 -11.18,-12.75 -10.53,-12.72 -9.87,-12.75 -9.21,-12.83 -8.55,-12.97 -7.89,-13.16 -8.09,-12.50 -8.22,-11.84 -8.31,-11.18 -8.33,-10.53 -8.31,-9.87 -8.22,-9.21 -8.09,-8.55 -7.89,-7.89 -8.55,-8.09 -9.21,-8.22 -9.87,-8.31 -10.53,-8.33 -11.18,-8.31 -11.84,-8.22 -12.50,-8.09 -13.16,-7.89 -12.97,-8.55 -12.83,-9.21 -12.75,-9.87 -12.72,-10.53 -12.75,-11.18 -12.83,-11.84 -12.97,-12.50 -13.16,-13.16" />
  <polygon points="-7.24,-12.97 -6.58,-12.83 -5.92,-12.75 -5.26,-12.72 -4.61,-12.75 -3.95,-12.83 -3.29,-12.97 -2.63,-13.16 -2.82,-12.50 -2.96,-11.84 -3.04,-11.18 -3.07,-10.53 -3.04,-9.87 -2.96,-9.21 -2.82,-8.55 -2.63,-7.89 -3.29,-8.09 -3.95,-8.22 -4.61,-8.31 -5.26,-8.33 -5.92,-8.31 -6.58,-8.22 -7.24,-8.09 -7.89,-7.89 -7.70,-8.55 -7.57,-9.21 -7.48,-9.87 -7.46,-10.53 -7.48,-11.18 -7.57,-11.84 -7.70,-12.50 -7.89,-13.16" />
  <polygon points="-1.97,-12.97 -1.32,-12.83 -0.66,-12.75 -0.00,-12.72 0.66,-12.75 1.32,-12.83 1.97,-12.97 2.63,-13.16 2.44,-12.50 2.30,-11.84 2.22,-11.18 2.19,-10.53 2.22,-9.87 2.30,-9.21 2.44,-8.55 2.63,-7.89 1.97,-8.09 1.32,-8.22 0.66,-8.31 -0.00,-8.33 -0.66,-8.31 -1.32,-8.22 -1.97,-8.09 -2.63,-7.89 -2.44,-8.55 -2.30,-9.21 -2.22,-9.87 -2.19,-10.53 -2.22,-11.18 -2.30,-11.84 -2.44,-12.50 -2.63,-13.16" />
  <polygon points="8.55,-12.97 9.21,-12.83 9.87,-12.75 10.53,-12.72 11.18,-12.75 11.84,-12.83 12.50,-12.97 13.16,-13.16 12.97,-12.50 12.83,-11.84 12.75,-11.18 12.72,-10.53 12.75,-9.87 12.83,-9.21 12.97,-8.55 13.16,-7.89 12.50,-8.09 11.84,-8.22 11.18,-8.31 10.53,-8.33 9.87,-8.31 9.21,-8.22 8.55,-8.09 7.89,-7.89 8.09,-8.55 8.22,-9.21 8.31,-9.87 8.33,-10.53 8.31,-11.18 8.22,-11.84 8.09,-12.50 7.89,-13.16" />
</svg>