<svg xmlns="http://www.w3.org/2000/svg" viewBox="-15 -15 30 30" fill="black" stroke="none">
  <polygon points="7.894733428955078,7.894733428955078 7.894733428955078,13.157890319824219 2.6315765380859375,13.157890319824219 2.6315765380859375,7.894733428955078 2.6315765380859375,2.6315765380859375 7.894733428955078,2.6315765380859375" />
  <polygon points="-7.894741058349609,7.894733428955078 -2.631580352783203,7.894733428955078 -2.631580352783203,13.157890319824219 -7.894741058349609,13.157890319824219 -13.1578950881958,13.157890319824219 -13.1578950881958,2.6315765380859375 -7.894741058349609,2.6315765380859375" />
  <polygon points="13.1578950881958,7.894733428955078 13.157890319824219,7.894733428955078 13.157890319824219,2.6315765380859375 7.894733428955078,2.6315765380859375 7.894733428955078,-2.631580352783203 13.157890319824219,-2.631580352783203 13.157890319824219,-7.894741058349609 13.1578950881958,-7.894741058349609" />
  <polygon points="2.6315765380859375,-7.894741058349609 2.6315765380859375,-2.631580352783203 2.6315765380859375,2.6315765380859375 -2.631580352783203,2.6315765380859375 -2.631580352783203,-2.631580352783203 -7.894741058349609,-2.631580352783203 -7.894741058349609,-7.894741058349609 -13.1578950881958,-7.894741058349609 -13.1578950881958,-13.1578950881958 2.6315765380859375,-13.1578950881958" />
  <polygon points="13.157890319824219,-7.894741058349609 7.894733428955078,-7.894741058349609 7.894733428955078,-13.1578950881958 13.157890319824219,-13.1578950881958" />
</svg>