<svg xmlns="http://www.w3.org/2000/svg" viewBox="-15 -15 30 30" fill="black" stroke="none">
  <polygon points="-8.16,12.89 -12.89,12.89 -12.89,8.16 -8.16,8.16" />
  <polygon points="-2.89,12.89 -7.63,12.89 -7.63,8.16 -2.89,8.16" />
  <polygon points="7.63,12.89 2.89,12.89 2.89,8.16 7.63,8.16" />
  <polygon points="-8.16,7.63 -12.89,7.63 -12.89,2.89 -8.16,2.89" />
  <polygon points="7.63,7.63 2.89,7.63 2.89,2.89 7.63,2.89" />
  <polygon points="2.37,2.37 -2.37,2.37 -2.37,-2.37 2.37,-2.37" />
  <polygon points="12.89,2.37 8.16,2.37 8.16,-2.37 12.89,-2.37" />
  <polygon points="-2.89,-2.89 -7.63,-2.89 -7.63,-7.63 -2.89,-7.63" />
  <polygon points="2.37,-2.89 -2.37,-2.89 -2.37,-7.63 2.37,-7.63" />
  <polygon points="-8.16,-8.16 -12.89,-8.16 -12.89,-12.89 -8.16,-12.89" />
  <polygon points="-2.89,-8.16 -7.63,-8.16 -7.63,-12.89 -2.89,-12.89" />
  <polygon points="2.37,-8.16 -2.37,-8.16 -2.37,-12.89 2.37,-12.89" />
  <polygon points="12.89,-8.16 8.16,-8.16 8.16,-12.89 12.89,-12.89" />
</svg>