<svg xmlns="http://www.w3.org/2000/svg" viewBox="-15 -15 30 30" fill="black" stroke="none">
  <polygon points="-9.93,9.98 -8.16,9.98 -9.54,11.07 -9.05,12.75 -10.53,11.76 -12.01,12.75 -11.51,11.07 -12.89,9.98 -11.12,9.98 -10.53,8.31" />
  <polygon points="-4.67,9.98 -2.89,9.98 -4.28,11.07 -3.78,12.75 -5.26,11.76 -6.74,12.75 -6.25,11.07 -7.63,9.98 -5.86,9.98 -5.26,8.31" />
  <polygon points="5.86,9.98 7.63,9.98 6.25,11.07 6.74,12.75 5.26,11.76 3.78,12.75 4.28,11.07 2.89,9.98 4.67,9.98 5.26,8.31" />
  <polygon points="-9.93,4.72 -8.16,4.72 -9.54,5.81 -9.05,7.48 -10.53,6.50 -12.01,7.48 -11.51,5.81 -12.89,4.72 -11.12,4.72 -10.53,3.04" />
  <polygon points="5.86,4.72 7.63,4.72 6.25,5.81 6.74,7.48 5.26,6.50 3.78,7.48 4.28,5.81 2.89,4.72 4.67,4.72 5.26,3.04" />
  <polygon points="0.59,-0.54 2.37,-0.54 0.99,0.54 1.48,2.22 -0.00,1.23 -1.48,2.22 -0.99,0.54 -2.37,-0.54 -0.59,-0.54 -0.00,-2.22" />
  <polygon points="11.12,-0.54 12.89,-0.54 11.51,0.54 12.01,2.22 10.53,1.23 9.05,2.22 9.54,0.54 8.16,-0.54 9.93,-0.54 10.53,-2.22" />
  <polygon points="-4.67,-5.81 -2.89,-5.81 -4.28,-4.72 -3.78,-3.04 -5.26,-4.03 -6.74,-3.04 -6.25,-4.72 -7.63,-5.81 -5.86,-5.81 -5.26,-7.48" />
  <polygon points="0.59,-5.81 2.37,-5.81 0.99,-4.72 1.48,-3.04 -0.00,-4.03 -1.48,-3.04 -0.99,-4.72 -2.37,-5.81 -0.59,-5.81 -0.00,-7.48" />
  <polygon points="-9.93,-11.07 -8.16,-11.07 -9.54,-9.98 -9.05,-8.31 -10.53,-9.29 -12.01,-8.31 -11.51,-9.98 -12.89,-11.07 -11.12,-11.07 -10.53,-12.75" />
  <polygon points="-4.67,-11.07 -2.89,-11.07 -4.28,-9.98 -3.78,-8.31 -5.26,-9.29 -6.74,-8.31 -6.25,-9.98 -7.63,-11.07 -5.86,-11.07 -5.26,-12.75" />
  <polygon points="0.59,-11.07 2.37,-11.07 0.99,-9.98 1.48,-8.31 -0.00,-9.29 -1.48,-8.31 -0.99,-9.98 -2.37,-11.07 -0.59,-11.07 -0.00,-12.75" />
  <polygon points="11.12,-11.07 12.89,-11.07 11.51,-9.98 12.01,-8.31 10.53,-9.29 9.05,-8.31 9.54,-9.98 8.16,-11.07 9.93,-11.07 10.53,-12.75" />
</svg>