<svg xmlns="http://www.w3.org/2000/svg" viewBox="-15 -15 30 30" fill="black" stroke="none">
  <polygon points="-7.89,4.17 -9.43,5.27 -7.89,6.35 -9.43,7.89 -7.90,9.43 -6.35,7.89 -5.26,9.43 -4.17,7.89 -2.63,9.44 -4.17,10.53 -2.63,11.62 -4.17,13.16 -5.27,11.62 -6.35,13.16 -7.90,11.62 -9.44,13.16 -10.53,11.62 -11.62,13.16 -13.16,11.62 -11.62,10.53 -13.16,9.44 -11.62,7.89 -13.16,6.35 -11.62,5.27 -13.16,4.17 -11.62,2.63 -10.53,4.17 -9.44,2.63" />
  <polygon points="7.89,4.17 6.36,5.27 7.89,6.35 6.36,7.90 7.89,9.44 6.36,10.52 7.89,11.62 6.35,13.16 5.26,11.62 4.17,13.16 2.63,11.62 4.17,10.52 2.63,9.44 4.17,7.89 2.63,6.35 4.17,5.26 2.63,4.17 4.17,2.63 5.26,4.17 6.35,2.63" />
  <polygon points="-4.17,-7.89 -2.63,-6.36 -1.10,-7.90 -2.64,-9.43" />
  <polygon points="-10.53,-11.62 -9.44,-13.16 -7.89,-11.62 -6.35,-13.16 -5.26,-11.62 -4.17,-13.16 -2.63,-11.62 -1.09,-13.16 0.00,-11.62 1.09,-13.16 2.63,-11.62 1.10,-10.53 2.63,-9.44 1.10,-7.89 2.63,-6.35 1.10,-5.26 2.63,-4.17 1.10,-2.63 2.63,-1.09 1.10,0.00 2.63,1.09 1.09,2.63 -0.00,1.09 -1.09,2.63 -2.63,1.09 -1.10,0.00 -2.63,-1.09 -1.10,-2.63 -2.63,-4.17 -4.17,-2.63 -5.27,-4.17 -6.35,-2.63 -7.89,-4.17 -6.36,-5.26 -7.89,-6.35 -6.36,-7.89 -7.89,-9.43 -9.44,-7.89 -10.53,-9.43 -11.62,-7.89 -13.16,-9.44 -11.62,-10.53 -13.16,-11.62 -11.62,-13.16" />
  <polygon points="13.16,-1.09 11.62,-0.00 13.16,1.09 11.62,2.63 10.53,1.09 9.44,2.63 7.89,1.09 9.44,-0.00 7.89,-1.09 9.44,-2.63 10.53,-1.09 11.62,-2.63" />
  <polygon points="10.53,-11.62 11.62,-13.16 13.16,-11.62 11.62,-10.53 13.16,-9.44 11.62,-7.89 10.53,-9.44 9.44,-7.89 7.89,-9.44 9.44,-10.53 7.89,-11.62 9.44,-13.16" />
  <polygon points="-4.11,-8.80 -1.76,-8.80 -1.76,-6.45 -4.11,-6.45" fill="white" transform="translate(-6, -0.5) rotate(45)" />
</svg>